<svg xmlns="http://www.w3.org/2000/svg" width="1200" height="314" viewBox="0 0 1200 314">
  <rect width="1200" height="314" fill="#1e1e1e"/>

  <!-- Minimalist polygon mesh edges -->
  <g stroke="#353535" stroke-width="0.9" fill="none">
    <line x1="60" y1="47" x2="216" y2="16"/>
    <line x1="216" y1="16" x2="384" y2="69"/>
    <line x1="60" y1="47" x2="144" y2="173"/>
    <line x1="384" y1="69" x2="144" y2="173"/>
    <line x1="216" y1="16" x2="660" y2="110"/>
    <line x1="384" y1="69" x2="660" y2="110"/>
    <line x1="144" y1="173" x2="300" y2="245"/>
    <line x1="144" y1="173" x2="504" y2="188"/>
    <line x1="300" y1="245" x2="504" y2="188"/>
    <line x1="300" y1="245" x2="456" y2="283"/>
    <line x1="504" y1="188" x2="456" y2="283"/>
    <line x1="504" y1="188" x2="660" y2="226"/>
    <line x1="660" y1="110" x2="816" y2="47"/>
    <line x1="660" y1="110" x2="864" y2="173"/>
    <line x1="816" y1="47" x2="864" y2="173"/>
    <line x1="660" y1="226" x2="864" y2="173"/>
    <line x1="660" y1="226" x2="744" y2="283"/>
    <line x1="864" y1="173" x2="744" y2="283"/>
    <line x1="816" y1="47" x2="1020" y2="94"/>
    <line x1="864" y1="173" x2="1020" y2="94"/>
    <line x1="864" y1="173" x2="1056" y2="220"/>
    <line x1="1020" y1="94" x2="1140" y2="31"/>
    <line x1="1140" y1="31" x2="1164" y2="157"/>
    <line x1="1020" y1="94" x2="1164" y2="157"/>
    <line x1="1056" y1="220" x2="1164" y2="157"/>
    <line x1="1056" y1="220" x2="1116" y2="283"/>
    <line x1="1164" y1="157" x2="1116" y2="283"/>
    <line x1="744" y1="283" x2="1056" y2="220"/>
  </g>

  <!-- Dots -->
  <g fill="#484848">
    <circle cx="60"  cy="47"  r="2.2"/>
    <circle cx="216" cy="16"  r="2.2"/>
    <circle cx="384" cy="69"  r="2.2"/>
    <circle cx="144" cy="173" r="2.2"/>
    <circle cx="300" cy="245" r="2.2"/>
    <circle cx="456" cy="283" r="2.2"/>
    <circle cx="504" cy="188" r="2.2"/>
    <circle cx="660" cy="110" r="2.2"/>
    <circle cx="660" cy="226" r="2.2"/>
    <circle cx="816" cy="47"  r="2.2"/>
    <circle cx="864" cy="173" r="2.2"/>
    <circle cx="744" cy="283" r="2.2"/>
    <circle cx="1020" cy="94"  r="2.2"/>
    <circle cx="1056" cy="220" r="2.2"/>
    <circle cx="1140" cy="31"  r="2.2"/>
    <circle cx="1164" cy="157" r="2.2"/>
    <circle cx="1116" cy="283" r="2.2"/>
  </g>

  <!-- GitHub logo -->
  <g transform="translate(1050, 107)">
    <circle cx="50" cy="50" r="50" fill="white"/>
    <path fill="#1e1e1e" d="M50 8.2C27.1 8.2 8.2 27.1 8.2 50c0 18.7 12.1 34.6 28.9 40.2
      2.1.4 2.9-.9 2.9-2.1 0-1 0-3.6-.1-7.1-11.7 2.5-14.1-5.6-14.1-5.6
      -1.9-4.8-4.7-6.1-4.7-6.1-3.8-2.6.3-2.6.3-2.6 4.2.3 6.4 4.3 6.4 4.3
      3.7 6.4 9.7 4.5 12.1 3.4.4-2.7 1.5-4.5 2.7-5.5-9.3-1-19-4.6-19-20.7
      0-4.6 1.6-8.3 4.3-11.2-.4-1.1-.2-5.3.4-11 0 0 3.5-1.1 11.5 4.3
      3.3-.9 6.8-1.4 10.4-1.4 3.5 0 7 .5 10.4 1.4 7.9-5.4 11.5-4.3 11.5-4.3
      .6 5.7.8 10 .4 11 2.7 2.9 4.3 6.6 4.3 11.2
      0 16.1-9.8 19.6-19.1 20.6 1.5 1.3 2.8 3.8 2.8 7.7
      0 5.6-.1 10-.1 11.4 0 1.1.7 2.4 2.9 2
      16.8-5.6 28.9-21.5 28.9-40.2C91.8 27.1 72.9 8.2 50 8.2z"/>
  </g>

  <!-- Typewriter text via SMIL animation + clipPath trick -->
  <defs>
    <clipPath id="cn">
      <rect x="0" y="0" height="80">
        <animate attributeName="width" from="0" to="700" dur="1.6s" begin="0.3s" fill="freeze" calcMode="discrete" keyTimes="0;0.0625;0.125;0.1875;0.25;0.3125;0.375;0.4375;0.5;0.5625;0.625;0.6875;0.75;0.8125;0.875;0.9375;1" values="0;44;88;132;176;220;264;308;352;396;440;484;528;572;616;660;700"/>
      </rect>
    </clipPath>
    <clipPath id="ct">
      <rect x="0" y="0" height="50">
        <animate attributeName="width" from="0" to="700" dur="2.2s" begin="2.1s" fill="freeze" calcMode="discrete" keyTimes="0;0.026;0.053;0.079;0.105;0.132;0.158;0.184;0.211;0.237;0.263;0.289;0.316;0.342;0.368;0.395;0.421;0.447;0.474;0.5;0.526;0.553;0.579;0.605;0.632;0.658;0.684;0.711;0.737;0.763;0.789;0.816;0.842;0.868;0.895;0.921;0.947;0.974;1" values="0;18;36;54;72;90;108;126;144;162;180;198;216;234;252;270;288;306;324;342;360;378;396;414;432;450;468;486;504;522;540;558;576;594;612;630;648;666;700"/>
      </rect>
    </clipPath>
  </defs>

  <g clip-path="url(#cn)">
    <text x="60" y="185" font-family="'Courier New', monospace" font-size="64" font-weight="700"
      fill="#ffffff" letter-spacing="4">ADJIE PRASETYA</text>
  </g>

  <g clip-path="url(#ct)">
    <text x="60" y="240" font-family="'Courier New', monospace" font-size="24"
      fill="#aaaaaa" letter-spacing="2">AI Engineer | ML Ops | Tech Enthusiast</text>
  </g>
</svg>
